<?xml version="1.0" encoding="UTF-8" standalone="no"?>
<!DOCTYPE svg PUBLIC "-//W3C//DTD SVG 1.1//EN" "http://www.w3.org/Graphics/SVG/1.1/DTD/svg11.dtd">
<svg width="100%" height="100%" viewBox="0 0 669 299" version="1.1" xmlns="http://www.w3.org/2000/svg" xmlns:xlink="http://www.w3.org/1999/xlink" xml:space="preserve" xmlns:serif="http://www.serif.com/" style="fill-rule:evenodd;clip-rule:evenodd;stroke-linecap:square;stroke-miterlimit:2;">
    <g transform="matrix(1,0,0,1,-1416.582186,-429.416197)">
        <g transform="matrix(1,0,0,1,740.470727,-661.138421)">
            <g>
                <g transform="matrix(1,0,0,1,-487.092426,446.17599)">
                    <path d="M1728.899,853.981C1721.021,870.892 1710.061,884.09 1699.371,894.181C1688.439,904.502 1674.515,914.997 1657.061,923.181C1644.487,929.078 1629.009,933.981 1611.629,933.981L1368.429,933.981C1374.641,920.648 1380.853,907.315 1387.064,893.981L1630.264,893.981C1643.541,893.981 1655.124,888.419 1664.162,882.181C1673.348,875.841 1682.918,866.821 1688.899,853.981C1692.808,845.59 1695.344,835.269 1690.437,825.781C1685.563,816.359 1676.245,813.981 1667.534,813.981L1504.334,813.981C1492.84,813.981 1479.639,811.771 1469.165,803.181C1459.057,794.891 1454.965,784.295 1453.676,774.181C1451.826,759.68 1456.267,745.437 1461.604,733.981C1469.482,717.071 1480.442,703.873 1491.132,693.781C1502.107,683.42 1516.081,672.945 1533.642,664.781C1546.215,658.936 1561.717,653.981 1578.873,653.981L1802.073,653.981C1795.862,667.315 1789.65,680.648 1783.438,693.981L1560.238,693.981C1547.154,693.981 1535.522,699.655 1526.541,705.781C1517.244,712.124 1507.584,721.143 1501.604,733.981C1497.689,742.384 1495.202,752.7 1500.266,762.181C1505.271,771.552 1514.376,773.981 1522.969,773.981L1686.169,773.981C1697.787,773.981 1711.183,776.159 1721.537,784.781C1731.517,793.093 1735.543,803.709 1736.827,813.781C1738.677,828.283 1734.236,842.526 1728.899,853.981Z" style="fill-rule:nonzero;stroke:black;stroke-width:8.33px;"/>
                </g>
            </g>
            <g>
                <clipPath id="_clip1">
                    <path d="M848.868,1395.334L676.111,1395.334L676.111,1075.163L1338.573,1075.163L1338.573,1077.241L1091.663,1077.241C1065.451,1077.241 1042.934,1087.312 1036.771,1090.177C1020.254,1097.855 1003.265,1109.062 988.19,1123.293C971.524,1139.027 960.409,1155.909 953.621,1170.48C951.282,1175.5 940.669,1199.232 943.733,1223.257C946.306,1243.433 956.031,1257.734 967.423,1267.077C986.208,1282.483 1011.562,1283.074 1017.124,1283.074L1180.324,1283.074C1180.635,1283.074 1182.142,1283.282 1183.086,1283.417C1183.085,1284.065 1182.838,1284.707 1182.731,1285.259C1182.226,1287.862 1181.207,1289.855 1180.916,1290.48C1175.827,1301.405 1166.523,1307.71 1163.935,1309.497C1161.87,1310.921 1153.437,1317.241 1143.054,1317.241L885.249,1317.241L848.868,1395.334ZM1338.573,1077.241L1350.821,1077.241L1338.573,1103.531L1338.573,1077.241ZM1338.573,1103.531L1338.573,1395.334L1166.947,1395.334C1171.039,1393.862 1175.259,1392.133 1179.581,1390.106C1195.764,1382.517 1212.69,1371.374 1227.893,1357.022C1244.559,1341.288 1255.674,1324.406 1262.462,1309.835L1262.463,1309.834C1264.801,1304.815 1275.414,1281.083 1272.35,1257.058C1269.745,1236.635 1259.95,1222.472 1248.993,1213.348C1230.378,1197.846 1204.355,1197.241 1198.959,1197.241L1035.759,1197.241C1035.434,1197.241 1033.857,1197.016 1033.034,1196.896C1032.815,1195.759 1033.44,1194.611 1033.678,1193.735C1034.206,1191.794 1034.922,1190.36 1035.167,1189.835C1040.25,1178.923 1049.671,1172.645 1052.246,1170.889C1054.227,1169.537 1062.811,1163.074 1073.029,1163.074L1310.834,1163.074L1338.573,1103.531ZM1166.947,1395.334C1150.067,1401.401 1135.338,1403.074 1124.42,1403.074L845.262,1403.074L848.868,1395.334L1166.947,1395.334Z"/>
                </clipPath>
                <g clip-path="url(#_clip1)">
                    <g transform="matrix(1,0,0,1,-996.93931,-1)">
                        <path d="M1999.641,1260.157L1722.893,1241.157L2018.276,1220.157L1999.641,1260.157Z"/>
                    </g>
                    <g transform="matrix(1,0,0,1,-956.93931,59.566929)">
                        <path d="M2159.641,1260.157L1658.623,1239.591L2178.276,1220.157L2159.641,1260.157Z"/>
                    </g>
                    <g transform="matrix(1,0,0,1,-946.93931,-122)">
                        <path d="M2006.641,1260.157L1719.805,1241.346L2025.276,1220.157L2006.641,1260.157Z"/>
                    </g>
                    <g transform="matrix(1,0,0,1,-986.128104,-60.905512)">
                        <path d="M1962.641,1260.157L1736.359,1240.157L1981.276,1220.157L1962.641,1260.157Z"/>
                    </g>
                    <g transform="matrix(1,0,0,1,-1066.93931,120)">
                        <path d="M1969.641,1260.157L1743.051,1240.819L1988.276,1220.157L1969.641,1260.157Z"/>
                    </g>
                </g>
            </g>
        </g>
    </g>
</svg>
