<?xml version="1.0" encoding="UTF-8" standalone="no"?><!DOCTYPE svg PUBLIC "-//W3C//DTD SVG 1.1//EN" "http://www.w3.org/Graphics/SVG/1.1/DTD/svg11.dtd"><svg width="100%" height="100%" viewBox="0 0 479 72" version="1.1" xmlns="http://www.w3.org/2000/svg" xmlns:xlink="http://www.w3.org/1999/xlink" xml:space="preserve" xmlns:serif="http://www.serif.com/" style="fill-rule:evenodd;clip-rule:evenodd;stroke-linecap:square;stroke-miterlimit:2;"><g><g><g><path d="M135.767,50.305c-1.891,4.058 -4.521,7.226 -7.087,9.648c-2.624,2.477 -5.966,4.996 -10.154,6.96c-3.018,1.415 -6.732,2.592 -10.904,2.592l-58.368,0c1.491,-3.2 2.982,-6.4 4.472,-9.6l58.368,0c3.186,-0 5.966,-1.335 8.135,-2.832c2.205,-1.522 4.501,-3.687 5.937,-6.768c0.938,-2.014 1.547,-4.491 0.369,-6.768c-1.17,-2.261 -3.406,-2.832 -5.497,-2.832l-39.168,0c-2.759,0 -5.927,-0.531 -8.44,-2.592c-2.426,-1.99 -3.408,-4.533 -3.718,-6.96c-0.444,-3.48 0.622,-6.899 1.903,-9.648c1.891,-4.058 4.521,-7.226 7.087,-9.648c2.634,-2.487 5.988,-5.001 10.202,-6.96c3.018,-1.403 6.738,-2.592 10.856,-2.592l53.568,-0c-1.491,3.2 -2.982,6.4 -4.472,9.6l-53.568,0c-3.14,-0 -5.932,1.362 -8.087,2.832c-2.231,1.522 -4.55,3.687 -5.985,6.768c-0.939,2.017 -1.536,4.492 -0.321,6.768c1.201,2.249 3.386,2.832 5.449,2.832l39.168,-0c2.788,0 6.003,0.523 8.488,2.592c2.395,1.995 3.361,4.543 3.67,6.96c0.444,3.48 -0.622,6.899 -1.903,9.648Z" style="fill-rule:nonzero;stroke:#000;stroke-width:2px;"/><path d="M229.988,26.305c-2.28,4.895 -5.443,8.85 -8.829,12.048c-3.459,3.267 -7.649,6.314 -12.735,8.688c-4.033,1.883 -8.647,3.264 -13.617,3.264l-38.592,0c1.476,-3.168 2.952,-6.336 4.428,-9.504l38.592,0c3.239,0 6.075,-0.962 8.213,-1.968c2.621,-1.234 5.211,-2.953 7.644,-5.28c1.803,-1.724 3.837,-4.116 5.297,-7.248c0.902,-1.936 1.81,-4.594 1.479,-7.296c-0.185,-1.511 -0.783,-3.575 -2.769,-5.184c-1.952,-1.581 -4.445,-1.92 -6.402,-1.92l-43.968,0c-8.945,19.2 -17.889,38.4 -26.834,57.6l-9.6,0c10.436,-22.4 20.871,-44.8 31.307,-67.2l53.568,0c3.499,0 7.456,0.673 10.598,3.216c3.051,2.47 4.27,5.649 4.641,8.688c0.522,4.287 -0.761,8.537 -2.419,12.096Z" style="fill-rule:nonzero;stroke:#000;stroke-width:2px;"/><path d="M284.07,69.505l-69.504,0c10.436,-22.4 20.871,-44.8 31.307,-67.2l69.504,0c-1.491,3.2 -2.982,6.4 -4.472,9.6l-59.904,-0c-7.454,16 -14.908,32 -22.362,48l59.904,0c-1.491,3.2 -2.982,6.4 -4.472,9.6Zm5.257,-28.8l-46.944,0c1.491,-3.2 2.982,-6.4 4.472,-9.6l46.944,0c-1.491,3.2 -2.982,6.4 -4.472,9.6Z" style="fill-rule:nonzero;stroke:#000;stroke-width:2px;"/><path d="M359.718,69.505l-69.504,0c10.436,-22.4 20.871,-44.8 31.307,-67.2l69.504,-0c-1.491,3.2 -2.982,6.4 -4.472,9.6l-59.904,0c-7.454,16 -14.908,32 -22.362,48l59.904,0c-1.491,3.2 -2.982,6.4 -4.472,9.6Zm5.257,-28.8l-46.944,0c1.491,-3.2 2.982,-6.4 4.472,-9.6l46.944,0c-1.491,3.2 -2.982,6.4 -4.472,9.6Z" style="fill-rule:nonzero;stroke:#000;stroke-width:2px;"/><path d="M460.715,35.905c-2.098,4.503 -4.836,8.906 -8.313,13.104c-3.465,4.185 -7.259,7.732 -11.275,10.704c-3.521,2.605 -7.892,5.232 -13.146,7.2c-3.874,1.451 -8.55,2.592 -13.832,2.592l-33.888,0c1.491,-3.2 2.982,-6.4 4.472,-9.6l33.888,0c4.889,-0 9.212,-1.337 12.945,-3.264c4.633,-2.392 8.369,-5.455 11.391,-8.688c3.452,-3.693 6.149,-7.738 8.157,-12.048c1.607,-3.449 3.087,-7.736 3.091,-12.096c0.003,-2.924 -0.703,-6.162 -3.297,-8.688c-2.652,-2.583 -6.529,-3.216 -9.926,-3.216l-38.688,0c-8.945,19.2 -17.889,38.4 -26.834,57.6l-9.6,0c10.436,-22.4 20.871,-44.8 31.307,-67.2l48.288,-0c3.597,0 7.826,0.526 11.416,2.592c2.563,1.475 4.971,3.728 6.415,7.248c1.503,3.662 1.616,7.501 1.279,10.752c-0.498,4.806 -2.142,9.338 -3.852,13.008Z" style="fill-rule:nonzero;stroke:#000;stroke-width:2px;"/></g></g><g><clipPath id="_clip1"><path d="M41.462,73.147l-41.462,0l0,-76.841l158.991,0l0,0.499l-59.258,0c-6.291,-0 -11.695,2.417 -13.174,3.105c-3.964,1.843 -8.041,4.532 -11.659,7.948c-4,3.776 -6.668,7.828 -8.297,11.325c-0.561,1.205 -3.108,6.9 -2.373,12.666c0.618,4.842 2.951,8.275 5.686,10.517c4.508,3.697 10.593,3.839 11.928,3.839l39.168,0c0.075,0 0.436,0.05 0.663,0.082c-0,0.156 -0.06,0.31 -0.085,0.442c-0.121,0.625 -0.366,1.103 -0.435,1.253c-1.222,2.622 -3.454,4.135 -4.076,4.564c-0.495,0.342 -2.519,1.859 -5.011,1.859l-61.873,0l-8.731,18.742Zm117.529,-76.342l2.939,0l-2.939,6.31l0,-6.31Zm0,6.31l0,70.033l-41.19,-0c0.982,-0.353 1.995,-0.768 3.032,-1.255c3.884,-1.821 7.946,-4.496 11.595,-7.94c4,-3.776 6.668,-7.828 8.297,-11.325l0,-0c0.561,-1.204 3.108,-6.9 2.373,-12.666c-0.625,-4.901 -2.976,-8.301 -5.606,-10.491c-4.467,-3.72 -10.713,-3.866 -12.008,-3.866l-39.168,0c-0.078,-0 -0.456,-0.054 -0.654,-0.083c-0.053,-0.273 0.097,-0.548 0.155,-0.759c0.127,-0.466 0.299,-0.81 0.357,-0.936c1.22,-2.619 3.481,-4.126 4.099,-4.547c0.476,-0.324 2.536,-1.875 4.988,-1.875l57.073,0l6.657,-14.29Zm-41.19,70.033c-4.051,1.456 -7.586,1.858 -10.206,1.858l-66.998,0l0.865,-1.858l76.339,-0Z"/></clipPath><g clip-path="url(#_clip1)"><path d="M78.382,40.465l-66.42,-4.56l70.892,-5.04l-4.472,9.6Z"/><path d="M126.382,55.001l-120.244,-4.936l124.717,-4.664l-4.472,9.6Z"/><path d="M92.062,11.425l-68.841,-4.515l73.313,-5.085l-4.472,9.6Z"/><path d="M72.096,26.087l-54.308,-4.8l58.78,-4.8l-4.472,9.6Z"/><path d="M54.382,69.505l-54.382,-4.641l58.854,-4.959l-4.472,9.6Z"/></g></g></g></svg>